{
  "accessors": [
    {
      "bufferView": 2,
      "componentType": 5126,
      "count": 120,
      "max": [
        1283488.5,
        1006391.625,
        1016450.1875
      ],
      "min": [
        -1456173.875,
        -1026021.375,
        -1021446.5
      ],
      "type": "VEC3"
    },
    {
      "bufferView": 2,
      "byteOffset": 1440,
      "componentType": 5126,
      "count": 120,
      "max": [
        0.99963301420211792,
        0.99996519088745117,
        0.9998246431350708
      ],
      "min": [
        -0.99963301420211792,
        -0.99996519088745117,
        -0.9998246431350708
      ],
      "type": "VEC3"
    },
    {
      "bufferView": 1,
      "componentType": 5126,
      "count": 120,
      "max": [
        1,
        1
      ],
      "min": [
        0,
        0
      ],
      "type": "VEC2"
    },
    {
      "bufferView": 0,
      "componentType": 5125,
      "count": 180,
      "max": [
        119
      ],
      "min": [
        0
      ],
      "type": "SCALAR"
    },
    {
      "bufferView": 2,
      "byteOffset": 2880,
      "componentType": 5126,
      "count": 120,
      "max": [
        1051652.875,
        972522.4375,
        1022943.1875
      ],
      "min": [
        -949927.625,
        -1287494.25,
        -1037976.9375
      ],
      "type": "VEC3"
    },
    {
      "bufferView": 2,
      "byteOffset": 4320,
      "componentType": 5126,
      "count": 120,
      "max": [
        0.99963295459747314,
        0.99996519088745117,
        0.9998246431350708
      ],
      "min": [
        -0.99963295459747314,
        -0.99996519088745117,
        -0.99982458353042603
      ],
      "type": "VEC3"
    },
    {
      "bufferView": 1,
      "byteOffset": 960,
      "componentType": 5126,
      "count": 120,
      "max": [
        1,
        1
      ],
      "min": [
        0,
        0
      ],
      "type": "VEC2"
    },
    {
      "bufferView": 0,
      "byteOffset": 720,
      "componentType": 5125,
      "count": 180,
      "max": [
        119
      ],
      "min": [
        0
      ],
      "type": "SCALAR"
    },
    {
      "bufferView": 2,
      "byteOffset": 5760,
      "componentType": 5126,
      "count": 40,
      "max": [
        998891.6875,
        1004409.375,
        1010645.6875
      ],
      "min": [
        -1002669.0625,
        -995968.625,
        -977752.0625
      ],
      "type": "VEC3"
    },
    {
      "bufferView": 2,
      "byteOffset": 6240,
      "componentType": 5126,
      "count": 40,
      "max": [
        0.99963301420211792,
        0.99940598011016846,
        0.9993584156036377
      ],
      "min": [
        -0.99963301420211792,
        -0.9999651312828064,
        -0.9998246431350708
      ],
      "type": "VEC3"
    },
    {
      "bufferView": 1,
      "byteOffset": 1920,
      "componentType": 5126,
      "count": 40,
      "max": [
        1,
        1
      ],
      "min": [
        0,
        0
      ],
      "type": "VEC2"
    },
    {
      "bufferView": 0,
      "byteOffset": 1440,
      "componentType": 5125,
      "count": 60,
      "max": [
        39
      ],
      "min": [
        0
      ],
      "type": "SCALAR"
    },
    {
      "bufferView": 2,
      "byteOffset": 6720,
      "componentType": 5126,
      "count": 40,
      "max": [
        998891.6875,
        1004409.375,
        1642376.75
      ],
      "min": [
        -1002669.0625,
        -995968.625,
        -1609481.25
      ],
      "type": "VEC3"
    },
    {
      "bufferView": 2,
      "byteOffset": 7200,
      "componentType": 5126,
      "count": 40,
      "max": [
        0.9997563362121582,
        0.99940639734268188,
        0.9993584156036377
      ],
      "min": [
        -0.99975627660751343,
        -0.99996626377105713,
        -0.99982458353042603
      ],
      "type": "VEC3"
    },
    {
      "bufferView": 1,
      "byteOffset": 2240,
      "componentType": 5126,
      "count": 40,
      "max": [
        0.99999994039535522,
        1
      ],
      "min": [
        0,
        0
      ],
      "type": "VEC2"
    },
    {
      "bufferView": 0,
      "byteOffset": 1680,
      "componentType": 5125,
      "count": 60,
      "max": [
        39
      ],
      "min": [
        0
      ],
      "type": "SCALAR"
    }
  ],
  "asset": {
    "extras": {
      "author": "JuanCarlos CR. | @jotahehe (https://sketchfab.com/jotahehe)",
      "license": "CC-BY-4.0 (http://creativecommons.org/licenses/by/4.0/)",
      "source": "https://sketchfab.com/3d-models/cardboard-boxes-713484d8f2284528bbd28ad41e197b24",
      "title": "Cardboard Boxes"
    },
    "generator": "Sketchfab-9.22.0",
    "version": "2.0"
  },
  "bufferViews": [
    {
      "buffer": 0,
      "byteLength": 1920,
      "byteOffset": 0,
      "name": "floatBufferViews",
      "target": 34963
    },
    {
      "buffer": 0,
      "byteLength": 2560,
      "byteOffset": 1920,
      "byteStride": 8,
      "name": "floatBufferViews",
      "target": 34962
    },
    {
      "buffer": 0,
      "byteLength": 7680,
      "byteOffset": 4480,
      "byteStride": 12,
      "name": "floatBufferViews",
      "target": 34962
    }
  ],
  "buffers": [
    {
      "byteLength": 12160,
      "uri": "scene.bin"
    }
  ],
  "images": [
    {
      "uri": "textures/Box_4_baseColor.png"
    },
    {
      "uri": "textures/Box_1_baseColor.png"
    },
    {
      "uri": "textures/Box_2_baseColor.png"
    },
    {
      "uri": "textures/Box_3_baseColor.png"
    }
  ],
  "materials": [
    {
      "doubleSided": true,
      "name": "Box_4",
      "pbrMetallicRoughness": {
        "baseColorFactor": [
          1,
          1,
          1,
          1
        ],
        "baseColorTexture": {
          "index": 0,
          "texCoord": 0
        },
        "metallicFactor": 0,
        "roughnessFactor": 0.82111456179999998
      }
    },
    {
      "doubleSided": true,
      "name": "Box_1",
      "pbrMetallicRoughness": {
        "baseColorFactor": [
          1,
          1,
          1,
          1
        ],
        "baseColorTexture": {
          "index": 1,
          "texCoord": 0
        },
        "metallicFactor": 0,
        "roughnessFactor": 0.82099999999999995
      }
    },
    {
      "doubleSided": true,
      "name": "Box_2",
      "pbrMetallicRoughness": {
        "baseColorFactor": [
          1,
          1,
          1,
          1
        ],
        "baseColorTexture": {
          "index": 2,
          "texCoord": 0
        },
        "metallicFactor": 0,
        "roughnessFactor": 0.82111456179999998
      }
    },
    {
      "doubleSided": true,
      "name": "Box_3",
      "pbrMetallicRoughness": {
        "baseColorFactor": [
          1,
          1,
          1,
          1
        ],
        "baseColorTexture": {
          "index": 3,
          "texCoord": 0
        },
        "metallicFactor": 0,
        "roughnessFactor": 0.82099999999999995
      }
    }
  ],
  "meshes": [
    {
      "name": "Box.04_Box 4_0",
      "primitives": [
        {
          "attributes": {
            "NORMAL": 1,
            "POSITION": 0,
            "TEXCOORD_0": 2
          },
          "indices": 3,
          "material": 0,
          "mode": 4
        }
      ]
    },
    {
      "name": "Box.01_Box 1_0",
      "primitives": [
        {
          "attributes": {
            "NORMAL": 5,
            "POSITION": 4,
            "TEXCOORD_0": 6
          },
          "indices": 7,
          "material": 1,
          "mode": 4
        }
      ]
    },
    {
      "name": "Box.02_Box 2_0",
      "primitives": [
        {
          "attributes": {
            "NORMAL": 9,
            "POSITION": 8,
            "TEXCOORD_0": 10
          },
          "indices": 11,
          "material": 2,
          "mode": 4
        }
      ]
    },
    {
      "name": "Box.03_Box 3_0",
      "primitives": [
        {
          "attributes": {
            "NORMAL": 13,
            "POSITION": 12,
            "TEXCOORD_0": 14
          },
          "indices": 15,
          "material": 3,
          "mode": 4
        }
      ]
    }
  ],
  "nodes": [
    {
      "children": [
        1
      ],
      "name": "RootNode (gltf orientation matrix)",
      "rotation": [
        -0.70710678118654746,
        -0,
        -0,
        0.70710678118654757
      ]
    },
    {
      "children": [
        2
      ],
      "matrix": [
        0.0027702017687261105,
        0,
        0,
        0,
        0,
        0.0027702017687261105,
        0,
        0,
        0,
        0,
        0.0027702017687261105,
        0,
        0,
        0,
        0,
        1
      ],
      "name": "RootNode (model correction matrix)"
    },
    {
      "children": [
        3
      ],
      "matrix": [
        1,
        0,
        0,
        0,
        0,
        0,
        1,
        0,
        0,
        -1,
        0,
        0,
        0,
        0,
        0,
        1
      ],
      "name": "4f43d8f5f4cd467fa48f42710addd3b9.fbx"
    },
    {
      "children": [
        4,
        6,
        8,
        10
      ],
      "name": "RootNode"
    },
    {
      "children": [
        5
      ],
      "matrix": [
        0.00010352938230411701,
        4.9004132043854089e-05,
        -2.4753588558968138e-05,
        0,
        -4.9190467805446678e-05,
        0.00010626080004683841,
        4.6279968320347647e-06,
        0,
        2.438120138548302e-05,
        6.3020250891696021e-06,
        0.00011444789033864355,
        0,
        -0.065283320844173431,
        607.21490478515625,
        242.57121276855469,
        1
      ],
      "name": "Box.04"
    },
    {
      "mesh": 0,
      "name": "Box.04_Box 4_0"
    },
    {
      "children": [
        7
      ],
      "matrix": [
        9.9942516726292288e-05,
        6.1173978463243322e-05,
        -1.3098906762049511e-06,
        0,
        -6.0337488200869964e-05,
        9.8113908714580526e-05,
        -2.1576064018884887e-05,
        0,
        -1.0166562105736003e-05,
        1.9075728691250606e-05,
        0.00011517481234763956,
        0,
        -2.8672969341278076,
        637.8558349609375,
        -261.30197143554688,
        1
      ],
      "name": "Box.01"
    },
    {
      "mesh": 1,
      "name": "Box.01_Box 1_0"
    },
    {
      "children": [
        9
      ],
      "matrix": [
        0.00011648055577198686,
        -7.4354801695021683e-06,
        -1.0462880382006546e-05,
        0,
        6.366202306987963e-06,
        0.00011641059118882098,
        -1.1854274817376182e-05,
        0,
        1.1145838454435429e-05,
        1.1214544731094789e-05,
        0.00011611409940695349,
        0,
        59.851997375488281,
        114.40775299072266,
        -287.9669189453125,
        1
      ],
      "name": "Box.02"
    },
    {
      "mesh": 2,
      "name": "Box.02_Box 2_0"
    },
    {
      "children": [
        11
      ],
      "matrix": [
        0.00011701520133935353,
        -5.8216223353881407e-06,
        2.4554985409988016e-06,
        0,
        5.6473411996719955e-06,
        0.00011679107078155103,
        7.7738750015161519e-06,
        0,
        -2.8334258473651077e-06,
        -7.644233404355078e-06,
        0.00011690174165979393,
        0,
        54.217094421386719,
        78.073165893554688,
        302.57266235351562,
        1
      ],
      "name": "Box.03"
    },
    {
      "mesh": 3,
      "name": "Box.03_Box 3_0"
    }
  ],
  "samplers": [
    {
      "magFilter": 9729,
      "minFilter": 9987,
      "wrapS": 10497,
      "wrapT": 10497
    }
  ],
  "scene": 0,
  "scenes": [
    {
      "name": "OSG_Scene",
      "nodes": [
        0
      ]
    }
  ],
  "textures": [
    {
      "sampler": 0,
      "source": 0
    },
    {
      "sampler": 0,
      "source": 1
    },
    {
      "sampler": 0,
      "source": 2
    },
    {
      "sampler": 0,
      "source": 3
    }
  ]
}

